<?xml version="1.0" encoding="UTF-8" standalone="no"?>
<!DOCTYPE svg PUBLIC "-//W3C//DTD SVG 1.1//EN"
 "http://www.w3.org/Graphics/SVG/1.1/DTD/svg11.dtd">
<!-- Generated by graphviz version 9.0.0 (20230911.1827)
 -->
<!-- Title: G Pages: 1 -->
<svg width="206pt" height="334pt"
 viewBox="0.00 0.00 206.38 334.25" xmlns="http://www.w3.org/2000/svg" xmlns:xlink="http://www.w3.org/1999/xlink">
<g id="graph0" class="graph" transform="scale(1 1) rotate(0) translate(4 330.25)">
<title>G</title>
<polygon fill="white" stroke="none" points="-4,4 -4,-330.25 202.38,-330.25 202.38,4 -4,4"/>
<!-- E1 -->
<g id="node1" class="node">
<title>E1</title>
<text text-anchor="middle" x="128.25" y="-312.95" font-family="Arial" font-size="14.00">E1</text>
</g>
<!-- P1 -->
<g id="node2" class="node">
<title>P1</title>
<text text-anchor="middle" x="111.25" y="-261.2" font-family="Arial" font-size="14.00">P1</text>
</g>
<!-- E1&#45;&gt;P1 -->
<g id="edge1" class="edge">
<title>E1&#45;&gt;P1</title>
<path fill="none" stroke="black" d="M126.03,-310.87C123.8,-304.35 120.27,-294.03 117.22,-285.11"/>
<polygon fill="black" stroke="black" points="120.56,-284.05 114.02,-275.72 113.94,-286.32 120.56,-284.05"/>
</g>
<!-- E2 -->
<g id="node16" class="node">
<title>E2</title>
<text text-anchor="middle" x="156.25" y="-261.2" font-family="Arial" font-size="14.00">E2</text>
</g>
<!-- E1&#45;&gt;E2 -->
<g id="edge15" class="edge">
<title>E1&#45;&gt;E2</title>
<path fill="none" stroke="black" d="M131.91,-310.87C135.7,-304.13 141.79,-293.32 146.92,-284.2"/>
<polygon fill="black" stroke="black" points="149.9,-286.04 151.76,-275.61 143.8,-282.61 149.9,-286.04"/>
</g>
<!-- A1 -->
<g id="node3" class="node">
<title>A1</title>
<text text-anchor="middle" x="56.25" y="-209.45" font-family="Arial" font-size="14.00">A1</text>
</g>
<!-- P1&#45;&gt;A1 -->
<g id="edge2" class="edge">
<title>P1&#45;&gt;A1</title>
<path fill="none" stroke="black" d="M104.06,-259.12C95.95,-251.79 82.52,-239.64 71.96,-230.08"/>
<polygon fill="black" stroke="black" points="74.5,-227.67 64.74,-223.55 69.81,-232.86 74.5,-227.67"/>
</g>
<!-- Pterm1 -->
<g id="node8" class="node">
<title>Pterm1</title>
<text text-anchor="middle" x="111.25" y="-209.45" font-family="Arial" font-size="14.00">Pterm1</text>
</g>
<!-- P1&#45;&gt;Pterm1 -->
<g id="edge7" class="edge">
<title>P1&#45;&gt;Pterm1</title>
<path fill="none" stroke="black" d="M111.25,-259.12C111.25,-252.75 111.25,-242.75 111.25,-233.97"/>
<polygon fill="black" stroke="black" points="114.75,-234.05 111.25,-224.05 107.75,-234.05 114.75,-234.05"/>
</g>
<!-- S1 -->
<g id="node4" class="node">
<title>S1</title>
<text text-anchor="middle" x="8.25" y="-157.7" font-family="Arial" font-size="14.00">S1</text>
</g>
<!-- A1&#45;&gt;S1 -->
<g id="edge3" class="edge">
<title>A1&#45;&gt;S1</title>
<path fill="none" stroke="black" d="M49.97,-207.37C43.04,-200.19 31.65,-188.38 22.52,-178.92"/>
<polygon fill="black" stroke="black" points="25.19,-176.64 15.73,-171.88 20.16,-181.51 25.19,-176.64"/>
</g>
<!-- Aterm1 -->
<g id="node6" class="node">
<title>Aterm1</title>
<text text-anchor="middle" x="56.25" y="-157.7" font-family="Arial" font-size="14.00">Aterm1</text>
</g>
<!-- A1&#45;&gt;Aterm1 -->
<g id="edge5" class="edge">
<title>A1&#45;&gt;Aterm1</title>
<path fill="none" stroke="black" d="M56.25,-207.37C56.25,-201 56.25,-191 56.25,-182.22"/>
<polygon fill="black" stroke="black" points="59.75,-182.3 56.25,-172.3 52.75,-182.3 59.75,-182.3"/>
</g>
<!-- a1 -->
<g id="node5" class="node">
<title>a1</title>
<text text-anchor="middle" x="8.25" y="-105.95" font-family="Arial" font-size="14.00">a1</text>
</g>
<!-- S1&#45;&gt;a1 -->
<g id="edge4" class="edge">
<title>S1&#45;&gt;a1</title>
<path fill="none" stroke="black" d="M8.25,-155.62C8.25,-149.25 8.25,-139.25 8.25,-130.47"/>
<polygon fill="black" stroke="black" points="11.75,-130.55 8.25,-120.55 4.75,-130.55 11.75,-130.55"/>
</g>
<!-- eps1 -->
<g id="node7" class="node">
<title>eps1</title>
<text text-anchor="middle" x="56.25" y="-105.95" font-family="Arial" font-size="14.00">eps1</text>
</g>
<!-- Aterm1&#45;&gt;eps1 -->
<g id="edge6" class="edge">
<title>Aterm1&#45;&gt;eps1</title>
<path fill="none" stroke="black" d="M56.25,-155.62C56.25,-149.25 56.25,-139.25 56.25,-130.47"/>
<polygon fill="black" stroke="black" points="59.75,-130.55 56.25,-120.55 52.75,-130.55 59.75,-130.55"/>
</g>
<!-- vert1 -->
<g id="node9" class="node">
<title>vert1</title>
<text text-anchor="middle" x="111.25" y="-157.7" font-family="Arial" font-size="14.00">vert1</text>
</g>
<!-- Pterm1&#45;&gt;vert1 -->
<g id="edge8" class="edge">
<title>Pterm1&#45;&gt;vert1</title>
<path fill="none" stroke="black" d="M111.25,-207.37C111.25,-201 111.25,-191 111.25,-182.22"/>
<polygon fill="black" stroke="black" points="114.75,-182.3 111.25,-172.3 107.75,-182.3 114.75,-182.3"/>
</g>
<!-- A2 -->
<g id="node10" class="node">
<title>A2</title>
<text text-anchor="middle" x="152.25" y="-157.7" font-family="Arial" font-size="14.00">A2</text>
</g>
<!-- Pterm1&#45;&gt;A2 -->
<g id="edge9" class="edge">
<title>Pterm1&#45;&gt;A2</title>
<path fill="none" stroke="black" d="M116.61,-207.37C122.41,-200.33 131.86,-188.86 139.58,-179.5"/>
<polygon fill="black" stroke="black" points="142.14,-181.9 145.8,-171.96 136.73,-177.45 142.14,-181.9"/>
</g>
<!-- A3 -->
<g id="node11" class="node">
<title>A3</title>
<text text-anchor="middle" x="152.25" y="-105.95" font-family="Arial" font-size="14.00">A3</text>
</g>
<!-- A2&#45;&gt;A3 -->
<g id="edge10" class="edge">
<title>A2&#45;&gt;A3</title>
<path fill="none" stroke="black" d="M152.25,-155.62C152.25,-149.25 152.25,-139.25 152.25,-130.47"/>
<polygon fill="black" stroke="black" points="155.75,-130.55 152.25,-120.55 148.75,-130.55 155.75,-130.55"/>
</g>
<!-- S2 -->
<g id="node12" class="node">
<title>S2</title>
<text text-anchor="middle" x="128.25" y="-54.2" font-family="Arial" font-size="14.00">S2</text>
</g>
<!-- A3&#45;&gt;S2 -->
<g id="edge11" class="edge">
<title>A3&#45;&gt;S2</title>
<path fill="none" stroke="black" d="M149.11,-103.87C145.9,-97.2 140.76,-86.56 136.39,-77.5"/>
<polygon fill="black" stroke="black" points="139.62,-76.14 132.12,-68.65 133.32,-79.18 139.62,-76.14"/>
</g>
<!-- Aterm2 -->
<g id="node14" class="node">
<title>Aterm2</title>
<text text-anchor="middle" x="176.25" y="-54.2" font-family="Arial" font-size="14.00">Aterm2</text>
</g>
<!-- A3&#45;&gt;Aterm2 -->
<g id="edge13" class="edge">
<title>A3&#45;&gt;Aterm2</title>
<path fill="none" stroke="black" d="M155.39,-103.87C158.6,-97.2 163.74,-86.56 168.11,-77.5"/>
<polygon fill="black" stroke="black" points="171.18,-79.18 172.38,-68.65 164.88,-76.14 171.18,-79.18"/>
</g>
<!-- b3 -->
<g id="node13" class="node">
<title>b3</title>
<text text-anchor="middle" x="128.25" y="-2.45" font-family="Arial" font-size="14.00">b3</text>
</g>
<!-- S2&#45;&gt;b3 -->
<g id="edge12" class="edge">
<title>S2&#45;&gt;b3</title>
<path fill="none" stroke="black" d="M128.25,-52.12C128.25,-45.75 128.25,-35.75 128.25,-26.97"/>
<polygon fill="black" stroke="black" points="131.75,-27.05 128.25,-17.05 124.75,-27.05 131.75,-27.05"/>
</g>
<!-- eps2 -->
<g id="node15" class="node">
<title>eps2</title>
<text text-anchor="middle" x="176.25" y="-2.45" font-family="Arial" font-size="14.00">eps2</text>
</g>
<!-- Aterm2&#45;&gt;eps2 -->
<g id="edge14" class="edge">
<title>Aterm2&#45;&gt;eps2</title>
<path fill="none" stroke="black" d="M176.25,-52.12C176.25,-45.75 176.25,-35.75 176.25,-26.97"/>
<polygon fill="black" stroke="black" points="179.75,-27.05 176.25,-17.05 172.75,-27.05 179.75,-27.05"/>
</g>
<!-- eps3 -->
<g id="node17" class="node">
<title>eps3</title>
<text text-anchor="middle" x="166.25" y="-209.45" font-family="Arial" font-size="14.00">eps3</text>
</g>
<!-- E2&#45;&gt;eps3 -->
<g id="edge16" class="edge">
<title>E2&#45;&gt;eps3</title>
<path fill="none" stroke="black" d="M157.56,-259.12C158.85,-252.68 160.9,-242.51 162.68,-233.66"/>
<polygon fill="black" stroke="black" points="166.07,-234.52 164.61,-224.02 159.21,-233.14 166.07,-234.52"/>
</g>
</g>
</svg>
